<svg width="39" height="40" viewBox="0 0 39 40" fill="none" xmlns="http://www.w3.org/2000/svg">
<path d="M17.3609 31.5956L7.14783 39.5783C4.72174 37.0739 3.03913 34.4522 2.1 31.713C1.16087 28.9739 1.00435 26.0391 1.63044 22.9087C2.33478 19.7783 3.82174 16.413 6.09131 12.813C8.36087 9.21303 11.4522 5.22173 15.3652 0.839119L16.0696 1.42608C13.5652 4.55651 11.687 7.41303 10.4348 9.99564C9.26087 12.5 8.71304 14.9261 8.79131 17.2739C8.94783 19.5435 9.73044 21.813 11.1391 24.0826C12.5478 26.3522 14.6217 28.8565 17.3609 31.5956ZM38.4913 31.5956L28.2783 39.5783C25.8522 37.0739 24.1696 34.4522 23.2304 31.713C22.2913 28.9739 22.1348 26.0391 22.7609 22.9087C23.4652 19.7783 24.9522 16.413 27.2217 12.813C29.4913 9.21303 32.5826 5.22173 36.4957 0.839119L37.2 1.42608C34.6957 4.55651 32.8174 7.41303 31.5652 9.99564C30.3913 12.5 29.8435 14.9261 29.9217 17.2739C30.0783 19.5435 30.8609 21.813 32.2696 24.0826C33.6783 26.3522 35.7522 28.8565 38.4913 31.5956Z" fill="white"/>
</svg>
