<svg width="39" height="39" viewBox="0 0 39 39" fill="none" xmlns="http://www.w3.org/2000/svg">
<path fill-rule="evenodd" clip-rule="evenodd" d="M19.9157 0.945312C14.7613 0.945312 14.1194 0.967448 12.0924 1.06231C5.19873 1.37854 1.37245 5.20166 1.05622 12.0953C0.964518 14.1223 0.942383 14.7674 0.942383 19.9186C0.942383 25.0731 0.964518 25.7182 1.05622 27.742C1.37245 34.6325 5.19873 38.4619 12.0924 38.7781C14.1194 38.8698 14.7613 38.892 19.9157 38.892C25.0701 38.892 25.7152 38.8698 27.7422 38.7781C34.6232 38.4619 38.4653 34.6388 38.7752 27.742C38.8669 25.7182 38.889 25.0731 38.889 19.9186C38.889 14.7674 38.8669 14.1223 38.7752 12.0953C38.4653 5.21115 34.6359 1.37537 27.7422 1.06231C25.7152 0.967448 25.0701 0.945312 19.9157 0.945312ZM19.9066 4.36757C24.9725 4.36757 25.5733 4.38655 27.575 4.47825C32.7199 4.71226 35.1169 7.15033 35.3541 12.2542C35.4426 14.2558 35.4616 14.8535 35.4616 19.9194C35.4616 24.9853 35.4426 25.5861 35.3541 27.5846C35.1169 32.6853 32.7231 35.1297 27.575 35.3637C25.5733 35.4522 24.9756 35.4744 19.9066 35.4744C14.8407 35.4744 14.2399 35.4554 12.2414 35.3637C7.08695 35.1265 4.69947 32.6789 4.46231 27.5846C4.37376 25.5861 4.35163 24.9853 4.35163 19.9194C4.35163 14.8535 4.37376 14.2527 4.46231 12.2542C4.69631 7.14717 7.09327 4.70909 12.2414 4.47509C14.2399 4.38338 14.8407 4.36757 19.9066 4.36757ZM10.1696 19.9201C10.1696 14.538 14.5335 10.1773 19.9125 10.1773C25.2914 10.1773 29.6553 14.5412 29.6553 19.9201C29.6553 25.3022 25.2914 29.6629 19.9125 29.6629C14.5335 29.6629 10.1696 25.3022 10.1696 19.9201ZM19.9219 26.2445C16.4277 26.2445 13.5975 23.4143 13.5975 19.9201C13.5975 16.429 16.4277 13.5956 19.9219 13.5956C23.413 13.5956 26.2495 16.4258 26.2495 19.9201C26.2495 23.4143 23.413 26.2445 19.9219 26.2445ZM27.7719 9.79062C27.7719 8.53205 28.7933 7.51382 30.0487 7.51382C31.3104 7.51382 32.3286 8.53205 32.3286 9.79062C32.3286 11.0492 31.3072 12.0674 30.0487 12.0674C28.7901 12.0674 27.7719 11.046 27.7719 9.79062Z" fill="white"/>
</svg>
