<svg width="30" height="20" viewBox="0 0 30 20" fill="none" xmlns="http://www.w3.org/2000/svg">
<path d="M1.58 0H28.4184C29.2884 0 30 0.711667 30 1.58167V1.75167C30 2.62167 29.2884 3.33334 28.4184 3.33334H1.58C0.710001 3.33334 0 2.62167 0 1.75167V1.58167C0 0.711667 0.710001 0 1.58 0Z" fill="white"/>
<path d="M28.4184 8.33334H1.58C0.710001 8.33334 0 9.04501 0 9.91501V10.085C0 10.955 0.710001 11.6667 1.58 11.6667H28.4184C29.2884 11.6667 30 10.955 30 10.085V9.91501C30 9.04501 29.2884 8.33334 28.4184 8.33334Z" fill="white"/>
<path d="M28.4184 16.6667H1.58C0.710001 16.6667 0 17.3783 0 18.2483V18.4183C0 19.2883 0.710001 20 1.58 20H28.4184C29.2884 20 30 19.2883 30 18.4183V18.2483C30 17.3783 29.2884 16.6667 28.4184 16.6667Z" fill="white"/>
</svg>
