<svg width="38" height="32" viewBox="0 0 38 32" fill="none" xmlns="http://www.w3.org/2000/svg">
<path d="M37.9789 4.34182C36.5844 4.96162 35.0823 5.37903 33.5075 5.56876C35.1171 4.60428 36.3472 3.08009 36.9322 1.26182C35.427 2.15356 33.7605 2.80182 31.9865 3.14966C30.5698 1.63496 28.5428 0.689453 26.3071 0.689453C21.2792 0.689453 17.5857 5.37903 18.721 10.2489C12.2542 9.92314 6.51478 6.82416 2.67584 2.11562C0.636211 5.61303 1.61966 10.1919 5.08546 12.5098C3.81108 12.4687 2.6126 12.1177 1.56274 11.5359C1.47736 15.1408 4.06406 18.5149 7.80813 19.2675C6.714 19.5648 5.51236 19.6343 4.29174 19.4003C5.28152 22.493 8.1623 24.7413 11.5649 24.8046C8.28563 27.3723 4.16525 28.5202 0.0322266 28.0332C3.47905 30.2436 7.5678 31.5306 11.9633 31.5306C26.421 31.5306 34.5858 19.3213 34.0925 8.37049C35.6167 7.27636 36.9354 5.90396 37.9789 4.34182Z" fill="white"/>
</svg>
